# xmcd
#
# Track frame offsets: 
#        150
#        41481
#        84090
#        105510
#        157665
#        172147
#        204597
#        302355
#        305275
#
# Disc length: 4420 seconds
#
# Revision: 0
# Processed by: cddbd v1.5.2PL0 Copyright (c) Steve Scherf et al.
# Submitted via: ExactAudioCopy v0.99pb4
#
DISCID=5b114209
DTITLE=Joanna Connor Band - Live and Raw #1
DYEAR=2008
DGENRE=Blues
TTITLE0=White Lines
TTITLE1=Make Love To You
TTITLE2=Got To Have You
TTITLE3=Dr. Feelgood
TTITLE4=Fine And Sublime
TTITLE5=You're So Fine
TTITLE6=Sunset - No Black Or White - Walking Blues
TTITLE7=Talking Blues
TTITLE8=Big Girl Blues
EXTD=
EXTT0=
EXTT1=
EXTT2=
EXTT3=
EXTT4=
EXTT5=
EXTT6=
EXTT7=
EXTT8=
PLAYORDER=
